Motion_sv02_j
version=1
nRows=12
nColumns=43
inDegrees=yes
endheader
time	pelvis_tilt	pelvis_list	pelvis_rotation	pelvis_tx	pelvis_ty	pelvis_tz	hip_flexion_r	hip_adduction_r	hip_rotation_r	knee_angle_r	ankle_angle_r	subtalar_angle_r	mtp_angle_r	hip_flexion_l	hip_adduction_l	hip_rotation_l	knee_angle_l	ankle_angle_l	subtalar_angle_l	mtp_angle_l	lumbar_extension	lumbar_bending	lumbar_rotation	neck_flexion	neck_lateral_bending	neck_rotation	arm_flex_r	arm_add_r	arm_rot_r	elbow_flex_r	pro_sup_r	wrist_flex_r	wrist_dev_r	hand_finger_flex_r	arm_flex_l	arm_add_l	arm_rot_l	elbow_flex_l	pro_sup_l	wrist_flex_l	wrist_dev_l	hand_finger_flex_l
      0.00250000	      5.55252266	    -14.99646927	    -82.50721390	     -0.06723197	      0.88887149	     -0.25535277	     25.81114170	     -9.05372324	     -3.02933880	    -33.67013512	      1.61165087	     -5.77604287	      2.97458296	    -36.65222853	      1.17452045	    -17.23391879	    -16.49750129	     24.34050007	     20.34231075	     23.19664695	    -34.26391088	     -2.98846216	      3.34856478	    -15.06233142	      7.06754529	    -18.02440738	    -22.26653191	     -3.39378366	    -26.49426945	     70.80335291	    115.41999625	      6.20924631	    -12.91923879	    -16.87320621	    -23.44517333	    -23.04712584	    -22.33907760	     99.29196014	    137.69755675	    -16.09962342	    -13.69030532	      5.92814805
      0.00500000	      5.54325929	    -14.90053274	    -82.51963861	     -0.06746399	      0.88836649	     -0.25285037	     25.90473537	     -9.01629278	     -3.01514365	    -33.64577886	      1.62289287	     -5.77400035	      2.97457804	    -36.69545820	      1.13500728	    -17.18953872	    -16.50063076	     24.31263281	     20.34676772	     23.18673817	    -34.26421061	     -2.93639926	      3.30049302	    -15.02828154	      7.05047649	    -18.00540382	    -22.15407239	     -3.41509567	    -26.44034600	     70.92860285	    115.43126771	      6.19891774	    -12.91909188	    -16.86678227	    -23.21340071	    -23.13584772	    -22.34855784	     99.43036262	    137.69855646	    -16.11112855	    -13.71339457	      5.94626930
      0.00750000	      5.49998663	    -14.74835388	    -82.49868780	     -0.06775727	      0.88770489	     -0.25026354	     26.07017036	     -8.93086487	     -2.88416464	    -33.68616480	      1.61927055	     -5.75424057	      2.96509150	    -36.61760693	      1.00159124	    -17.00001139	    -16.65021790	     24.15171497	     20.40972461	     23.15472468	    -34.23715839	     -2.83684308	      3.29191231	    -14.57113347	      6.96778116	    -17.85328716	    -22.17979384	     -3.51736011	    -26.23529071	     71.19535720	    115.52755010	      6.15857009	    -12.84864073	    -16.85013757	    -22.88948247	    -23.38658202	    -22.21985711	     99.51314938	    137.73219785	    -16.03202245	    -13.74226599	      6.07857343
      0.01000000	      5.53139735	    -14.59832307	    -82.54107540	     -0.06784710	      0.88706222	     -0.24803599	     26.29486810	     -8.94094018	     -2.79014271	    -33.73268809	      1.56156352	     -5.77184902	      2.92844954	    -36.47094182	      1.00968102	    -16.88297474	    -16.92844603	     24.12792831	     20.43164095	     23.14267709	    -34.29003365	     -2.80114873	      3.32886405	    -14.02613930	      6.93643186	    -17.68479624	    -22.16063295	     -3.58704026	    -26.16790618	     71.56425990	    115.67190149	      5.96421614	    -12.71341594	    -16.87544126	    -22.53138859	    -23.54288918	    -22.10039134	     99.65289971	    137.74582340	    -15.95615106	    -13.75578179	      6.33049150
      0.01250000	      5.53558342	    -14.50660399	    -82.56202624	     -0.06817495	      0.88654472	     -0.24536155	     26.39196429	     -8.90615963	     -2.77640814	    -33.72660359	      1.56604657	     -5.76537037	      2.92588602	    -36.53008833	      0.97163296	    -16.87216713	    -16.95180886	     24.10051068	     20.43042424	     23.14077561	    -34.29129307	     -2.77483700	      3.28563409	    -13.98407659	      6.90818542	    -17.65910518	    -22.04208448	     -3.58938777	    -26.11538915	     71.67154461	    115.69008301	      5.95220589	    -12.71814550	    -16.87498505	    -22.26754312	    -23.62909567	    -22.13384976	     99.81192020	    137.73973097	    -15.97776785	    -13.77529329	      6.35376251
      0.01500000	      5.60441952	    -14.30651179	    -82.62047687	     -0.06852982	      0.88576585	     -0.24307651	     26.71232711	     -8.90664394	     -2.58461464	    -33.83798404	      1.44525184	     -5.76810228	      2.86346613	    -36.30787473	      1.00172271	    -16.76435707	    -17.29742462	     24.04033785	     20.46388921	     23.17921824	    -34.34290948	     -2.82348075	      3.35051344	    -13.17244626	      6.87884457	    -17.41806095	    -22.09120762	     -3.61945783	    -26.01302393	     72.10643221	    115.94342132	      5.69722057	    -12.57465756	    -16.91377139	    -21.83990360	    -23.84620710	    -22.00752462	    100.01799602	    137.76929961	    -15.97397980	    -13.75607004	      6.73201346
      0.01750000	      5.59574997	    -14.18818504	    -82.63844309	     -0.06883510	      0.88519915	     -0.24047355	     26.94083925	     -8.85897193	     -2.49382450	    -34.01987857	      1.43089339	     -5.76584943	      2.84510885	    -36.27378473	      0.92907850	    -16.70754097	    -17.45127856	     23.88910993	     20.46660323	     23.19611661	    -34.36218517	     -2.76347356	      3.31158792	    -12.83887122	      6.81081649	    -17.30589437	    -21.94877487	     -3.70706173	    -25.89088014	     72.26048168	    116.06012586	      5.65277499	    -12.54579050	    -16.90122726	    -21.51611495	    -24.04472654	    -21.92950354	    100.13118442	    137.80378050	    -16.00760682	    -13.75346512	      6.88958896
      0.02000000	      5.60289654	    -14.05018602	    -82.65027788	     -0.06922688	      0.88458362	     -0.23791235	     27.17008994	     -8.82348269	     -2.45902022	    -34.14333037	      1.37580018	     -5.75427722	      2.82415156	    -36.18346090	      0.86282844	    -16.66092035	    -17.67167144	     23.77205093	     20.46956404	     23.23238892	    -34.40353123	     -2.72908264	      3.29214875	    -12.36211003	      6.75138022	    -17.12650118	    -21.88365330	     -3.77025477	    -25.78695045	     72.49951793	    116.19060311	      5.58655541	    -12.52890990	    -16.89817601	    -21.14229701	    -24.21444835	    -21.88285595	    100.28464670	    137.85197660	    -16.08625454	    -13.74627702	      7.02029214
      0.02250000	      5.60849846	    -13.90024872	    -82.63967304	     -0.06949167	      0.88395840	     -0.23539305	     27.40592988	     -8.80929055	     -2.44056998	    -34.25524826	      1.29692726	     -5.74952861	      2.80153645	    -36.06527986	      0.79223931	    -16.57723180	    -17.91755817	     23.69751670	     20.46586624	     23.30022588	    -34.44727750	     -2.67458508	      3.25178099	    -11.83548645	      6.71896744	    -16.93305688	    -21.80279258	     -3.81133172	    -25.70673705	     72.76805648	    116.36073194	      5.48598044	    -12.49213898	    -16.90307194	    -20.77641784	    -24.37596784	    -21.79928550	    100.47649761	    137.93217584	    -16.20725995	    -13.74250557	      7.15589405
      0.02500000	      5.59438046	    -13.77359424	    -82.59633052	     -0.06987192	      0.88337145	     -0.23268568	     27.60317523	     -8.76937730	     -2.45319419	    -34.39294553	      1.24982941	     -5.74428855	      2.79149002	    -36.00283217	      0.67183911	    -16.49551606	    -18.10764465	     23.59351240	     20.45754520	     23.35145336	    -34.47300566	     -2.59722055	      3.18933523	    -11.42510306	      6.66724901	    -16.77558228	    -21.71648745	     -3.86496949	    -25.60673684	     72.95353907	    116.49796414	      5.43413615	    -12.46189897	    -16.90165966	    -20.39502238	    -24.54434821	    -21.76499295	    100.63180677	    138.00025548	    -16.30318996	    -13.74104706	      7.23392204
      0.02750000	      5.62263685	    -13.57156046	    -82.45606145	     -0.06996003	      0.88271582	     -0.23032011	     27.83459300	     -8.84634233	     -2.57719432	    -34.41249307	      1.09594911	     -5.78094357	      2.75665385	    -35.75619946	      0.55854070	    -16.18467630	    -18.46337003	     23.67257848	     20.36659392	     23.59722585	    -34.51269656	     -2.50832919	      3.04141963	    -10.78694739	      6.70171610	    -16.54402454	    -21.65014636	     -3.83929715	    -25.60171806	     73.31414539	    116.89197956	      5.19457456	    -12.33511364	    -16.93204041	    -19.99506678	    -24.69249831	    -21.67561168	    100.86064883	    138.20762867	    -16.62003745	    -13.69305597	      7.47982923
      0.03000000	      5.57698607	    -13.46220679	    -82.39530040	     -0.07021086	      0.88220366	     -0.22746331	     28.00017139	     -8.78475202	     -2.57880976	    -34.55735752	      1.11027707	     -5.76635180	      2.76066044	    -35.75593645	      0.41125717	    -16.11069197	    -18.56004411	     23.47555547	     20.35275431	     23.62458817	    -34.51491108	     -2.37723949	      2.95146010	    -10.51974153	      6.60540283	    -16.42687526	    -21.52049910	     -3.93689572	    -25.45295604	     73.41208473	    116.97983202	      5.21610486	    -12.33472774	    -16.91582244	    -19.63979868	    -24.84048523	    -21.59153354	    101.02155970	    138.25037775	    -16.65655907	    -13.72283340	      7.52806828
